HIERARCHY
ROOT root
{
	OFFSET 0.000000 0.000000 0.000000
	CHANNELS 6 Xposition Yposition Zposition Zrotation Yrotation Xrotation
	JOINT lhip
	{
		OFFSET 0.058581 -0.082280 -0.017664
		CHANNELS 3 Zrotation Yrotation Xrotation
		JOINT lknee
		{
			OFFSET 0.043451 -0.386469 0.008037
			CHANNELS 3 Zrotation Yrotation Xrotation
			JOINT lankle
			{
				OFFSET -0.014790 -0.426874 -0.037428
				CHANNELS 3 Zrotation Yrotation Xrotation
				JOINT ltoe
				{
					OFFSET 0.041054 -0.060286 0.122042
					CHANNELS 3 Zrotation Yrotation Xrotation
					End Site
					{
						OFFSET 0.000000 0.000000 0.000000
					}
				}
			}
		}
	}
	JOINT rhip
	{
		OFFSET -0.060310 -0.090513 -0.013543
		CHANNELS 3 Zrotation Yrotation Xrotation
		JOINT rknee
		{
			OFFSET -0.043257 -0.383688 -0.004843
			CHANNELS 3 Zrotation Yrotation Xrotation
			JOINT rankle
			{
				OFFSET 0.019056 -0.420046 -0.034562
				CHANNELS 3 Zrotation Yrotation Xrotation
				JOINT rtoe
				{
					OFFSET -0.034840 -0.062106 0.130323
					CHANNELS 3 Zrotation Yrotation Xrotation
					End Site
					{
						OFFSET 0.000000 0.000000 0.000000
					}
				}
			}
		}
	}
	JOINT lowerback
	{
		OFFSET 0.004439 0.124404 -0.038385
		CHANNELS 3 Zrotation Yrotation Xrotation
		JOINT upperback
		{
			OFFSET 0.004488 0.137956 0.026820
			CHANNELS 3 Zrotation Yrotation Xrotation
			JOINT chest
			{
				OFFSET -0.002265 0.056032 0.002855
				CHANNELS 3 Zrotation Yrotation Xrotation
				JOINT lowerneck
				{
					OFFSET -0.013390 0.211636 -0.033468
					CHANNELS 3 Zrotation Yrotation Xrotation
					JOINT upperneck
					{
						OFFSET 0.010113 0.088937 0.050410
						CHANNELS 3 Zrotation Yrotation Xrotation
						End Site
						{
							OFFSET 0.000000 0.000000 0.000000
						}
					}
				}
				JOINT lclavicle
				{
					OFFSET 0.071702 0.114000 -0.018898
					CHANNELS 3 Zrotation Yrotation Xrotation
					JOINT lshoulder
					{
						OFFSET 0.122921 0.045205 -0.019046
						CHANNELS 3 Zrotation Yrotation Xrotation
						JOINT lelbow
						{
							OFFSET 0.255332 -0.015649 -0.022946
							CHANNELS 3 Zrotation Yrotation Xrotation
							JOINT lwrist
							{
								OFFSET 0.265709 0.012698 -0.007375
								CHANNELS 3 Zrotation Yrotation Xrotation
								End Site
								{
									OFFSET 0.000000 0.000000 0.000000
								}
							}
						}
					}
				}
				JOINT rclavicle
				{
					OFFSET -0.082954 0.112472 -0.023707
					CHANNELS 3 Zrotation Yrotation Xrotation
					JOINT rshoulder
					{
						OFFSET -0.113228 0.046853 -0.008472
						CHANNELS 3 Zrotation Yrotation Xrotation
						JOINT relbow
						{
							OFFSET -0.260127 -0.014369 -0.031269
							CHANNELS 3 Zrotation Yrotation Xrotation
							JOINT rwrist
							{
								OFFSET -0.269108 0.006794 -0.006027
								CHANNELS 3 Zrotation Yrotation Xrotation
								End Site
								{
									OFFSET 0.000000 0.000000 0.000000
								}
							}
						}
					}
				}
			}
		}
	}
}
MOTION
Frames: 5
Frame Time: 0.033333
0.357351 0.177417 0.987941 88.916133 0.040542 90.662829 8.215667 3.973378 5.219490 -4.104434 -1.785347 -2.837014 -0.400043 6.813424 -4.113291 0.000000 -0.000000 0.000000 -7.639395 -2.751185 -0.420316 2.037963 -1.587028 3.313559 4.718150 -4.412803 -6.589942 0.000000 -0.000000 0.000000 -4.443231 2.108620 -3.226514 2.788105 -2.744461 5.871835 0.234881 1.205996 -1.306672 5.479320 3.230592 2.119569 4.546127 -5.368480 2.887582 -25.081182 -5.828251 3.910264 -53.762045 -14.241185 19.015117 -7.712287 -24.662577 22.399379 0.636151 -14.765413 -10.767580 27.763739 4.254339 7.265810 57.615234 6.967656 15.747438 -15.929141 33.782248 -11.014095 1.726266 6.766507 -37.324748 
0.355837 0.177805 0.988009 88.759199 -0.040125 90.550377 8.092555 4.116799 5.216961 -4.072557 -1.629180 -2.737293 -0.500766 6.607728 -4.127603 0.000000 -0.000000 0.000000 -7.751992 -2.489158 -0.451429 2.006032 -1.745368 3.355460 4.788876 -4.309292 -6.471487 0.000000 -0.000000 0.000000 -4.332896 1.960694 -2.729638 2.807569 -2.781759 5.575945 0.261532 1.192508 -1.224772 5.742617 3.394707 1.500220 4.141549 -5.954121 3.970767 -24.872727 -6.962009 3.805330 -53.743201 -15.498252 19.663496 -8.691538 -26.339101 23.034714 0.403109 -14.993792 -11.494371 27.413787 5.025280 7.209970 57.788314 8.226937 15.726416 -17.003146 34.716141 -14.568888 1.236638 6.967511 -43.283960 
0.354905 0.177821 0.987949 88.684869 -0.079533 90.533747 8.094791 4.229100 5.158957 -4.125655 -1.496716 -2.710767 -0.588411 6.389994 -4.151988 0.000000 -0.000000 0.000000 -7.780314 -2.427540 -0.502530 1.968417 -1.814000 3.312802 4.780089 -4.252145 -6.397097 0.000000 -0.000000 0.000000 -4.267597 1.853684 -2.664666 2.922625 -2.988797 5.681662 0.276999 1.100655 -1.213134 6.107200 3.656080 1.548961 3.819185 -6.228583 4.187515 -24.925305 -8.143275 3.583210 -53.606412 -16.848061 20.566147 -9.585423 -27.929729 23.844390 0.856240 -14.267564 -11.905321 27.348911 5.714768 7.147306 57.352179 9.769096 15.751602 -17.505192 35.569286 -17.593234 -0.656820 5.948057 -47.498305 
0.353727 0.177854 0.987989 88.329520 -0.238163 90.510352 7.917130 4.382922 5.088880 -4.108154 -1.127577 -2.635897 -0.633005 6.081801 -4.165638 0.000000 -0.000000 0.000000 -7.925192 -2.339445 -0.671442 1.828978 -2.033292 3.408206 4.859042 -3.817262 -6.258604 0.000000 -0.000000 0.000000 -4.100650 1.728722 -2.519817 2.929465 -3.266113 6.060505 0.213069 1.014271 -1.538665 6.217053 3.785173 1.396433 3.702341 -6.513959 4.681261 -24.934183 -10.241192 3.464751 -53.839439 -18.456202 21.945889 -9.566949 -30.126686 23.064547 1.031480 -13.815289 -11.737805 27.163140 7.313154 7.116911 56.888343 11.767841 15.581387 -18.785841 35.755902 -21.285629 -0.305888 6.249192 -51.683005 
0.353390 0.177794 0.987981 88.254592 -0.283037 90.511396 7.876265 4.420900 5.029716 -4.104911 -1.046758 -2.572197 -0.631992 5.973397 -4.155672 0.000000 -0.000000 0.000000 -7.966072 -2.381021 -0.726269 1.800316 -2.062459 3.439103 4.881061 -3.697283 -6.237918 0.000000 -0.000000 0.000000 -4.056882 1.664077 -2.493879 2.943137 -3.409501 6.224272 0.196539 1.000184 -1.640523 6.196152 3.865536 1.296696 3.656570 -6.528285 4.725447 -24.854506 -10.909604 3.415121 -54.099397 -19.155778 22.305499 -9.432151 -30.331496 23.000606 1.436905 -13.707803 -12.046297 27.080170 7.788570 7.153789 56.766501 12.547751 15.488675 -19.082936 35.630322 -21.894504 -0.479306 6.186008 -52.734676 
